<?xml version="1.0" encoding="utf-8"?>
<!-- Generator: Adobe Illustrator 26.4.1, SVG Export Plug-In . SVG Version: 6.00 Build 0)  -->
<svg version="1.1" id="Layer_1" xmlns="http://www.w3.org/2000/svg" xmlns:xlink="http://www.w3.org/1999/xlink" x="0px" y="0px"
	 viewBox="0 0 2034 2112" style="enable-background:new 0 0 2034 2112;" xml:space="preserve">
<style type="text/css">
	.st0{fill:#C97682;}
	.st1{fill:#75C275;}
	.st2{fill:#EEE391;}
	.st3{fill:#CA94C2;}
	.st4{fill:#767EBD;}
	.st5{fill:#D9A07D;}
</style>
<g>
	<path class="st0" d="M943.7,755.54c0,23.44-1.51,46.89-4.54,69.58c24.96,4.54,50.67,7.18,77.14,7.18s52.18-2.65,77.14-7.18
		c-3.02-22.69-4.54-46.13-4.54-69.58c0-214.4,128.95-399.31,313.48-480.99C1343.76,118.38,1192.89,7.21,1016.3,7.21
		S688.83,118.38,630.22,274.55C814.75,356.23,943.7,541.14,943.7,755.54z"/>
	<path class="st1" d="M1202.34,755.54c0,10.59,0.38,21.55,1.51,31.76c1.13,20.04,4.16,39.7,8.32,58.61
		c4.16,18.91,9.83,37.06,16.64,54.83c7.18,19.66,15.88,38.19,26.09,56.34c94.16-88.49,220.83-142.93,359.99-142.93
		s265.83,54.45,359.98,142.93c33.65-59.75,52.56-128.57,52.56-201.55c0-227.26-184.91-412.55-412.55-412.55
		c-26.47,0-52.18,2.65-77.14,7.18c-18.91,3.78-37.44,8.32-55.21,14.75c-18.91,6.05-37.06,13.99-54.83,23.44
		C1294.23,456.43,1202.34,595.59,1202.34,755.54z"/>
	<path class="st2" d="M417.71,814.15c139.15,0,265.83,54.45,359.99,142.93c10.21-18.15,18.91-36.68,26.09-56.34
		c6.81-17.77,12.48-35.92,16.64-54.83s7.18-38.57,8.32-58.61c1.14-10.21,1.51-21.18,1.51-31.76c0-159.95-91.51-299.11-224.99-367.55
		c-17.77-9.07-35.92-16.64-55.21-23.07c-17.77-6.43-36.3-10.97-55.21-14.75c-24.96-4.54-50.67-7.18-77.14-7.18
		c-227.64,0-412.55,185.29-412.55,412.55c0,72.98,18.91,141.8,52.56,201.55C151.88,868.6,278.55,814.15,417.71,814.15z"/>
	<path class="st3" d="M1943.49,1090.95c-11.72-15.12-24.2-29.49-37.81-43.11c-74.49-74.49-177.35-120.25-290.79-120.25
		s-215.92,45.75-290.79,120.25c-13.24,13.23-25.71,27.6-37.44,42.73c-11.72,15.12-22.31,31.01-31.39,48.02
		c-13.23,22.69-23.82,46.89-32.14,72.23c187.55,80.16,319.15,266.59,319.15,483.26c0,17.4-0.75,34.79-2.64,51.8
		c24.58,4.54,49.54,6.81,75.25,6.81c227.64,0,412.55-184.91,412.55-412.55c0-73.36-19.29-142.18-52.94-201.55
		C1965.42,1121.95,1954.83,1106.07,1943.49,1090.95z"/>
	<path class="st4" d="M809.46,1210.82c-8.32-25.34-18.91-49.54-32.14-72.23c-9.07-17.02-19.66-32.9-31.39-48.02
		c-11.34-15.13-23.82-29.5-37.44-42.73C634,973.35,531.15,927.59,417.71,927.59s-216.29,45.75-290.79,120.25
		c-13.61,13.23-26.09,27.6-37.44,42.73c-11.72,15.12-22.31,31.01-31.39,48.02c-33.65,59.37-52.94,128.19-52.94,201.55
		c0,227.64,184.91,412.55,412.55,412.55c25.71,0,50.67-2.27,75.25-6.81c-1.89-17.02-2.64-34.41-2.64-51.8
		C490.31,1477.4,621.9,1290.98,809.46,1210.82z"/>
	<path class="st5" d="M1202.72,1326.15c-17.77-9.07-36.3-17.02-55.59-23.44c-17.77-6.05-36.68-10.97-55.59-14.37
		c-24.58-4.54-49.54-6.81-75.25-6.81s-50.67,2.27-75.25,6.81c-18.91,3.4-37.81,8.32-55.59,14.37
		c-19.28,6.43-37.81,14.37-55.59,23.44c-134.24,68.06-226.13,207.6-226.13,367.93c0,4.54,0,9.45,0.38,13.99
		c0.38,20.42,2.65,40.46,6.43,59.75c3.02,18.91,7.94,37.81,13.99,55.58C679,1987.89,834.04,2107,1016.3,2107
		s337.3-119.11,391.75-283.6c6.05-17.77,10.97-36.68,13.99-55.58c3.78-19.66,6.05-39.7,6.43-60.12c0.38-4.54,0.38-9.07,0.38-13.61
		C1428.84,1533.75,1336.96,1394.21,1202.72,1326.15z"/>
</g>
</svg>
